<svg xmlns="http://www.w3.org/2000/svg" viewBox="0 0 500 500"><g id="freepik--Arrow--inject-254"><polygon points="202.22 114.83 202.22 123.55 225.98 123.55 225.98 126.6 184.62 126.6 184.62 134 225.98 134 225.98 166.71 190.87 166.71 190.87 175.43 225.98 175.43 225.98 187.72 133.56 187.72 133.56 161.14 161.94 161.14 161.94 152.05 133.56 152.05 133.56 143.33 145.05 143.33 145.05 137.06 133.56 137.06 133.56 111.77 225.98 111.77 225.98 114.83 202.22 114.83" style="fill:#F2F2F2"></polygon><polygon points="224.47 114.83 224.47 111.77 289 111.77 289 114.81 227.51 114.81 227.51 114.83 224.47 114.83" style="fill:#F2F2F2"></polygon><rect x="224.47" y="123.55" width="3.04" height="3.05" style="fill:#F2F2F2"></rect><rect x="224.47" y="134" width="3.04" height="32.71" style="fill:#F2F2F2"></rect><polygon points="329.73 203.74 325.69 206.07 287.49 228.13 287.49 187.74 224.47 187.74 224.47 175.43 227.51 175.43 227.51 184.7 290.52 184.7 290.52 222.87 324.18 203.44 328.21 201.11 329.73 203.74" style="fill:#F2F2F2"></polygon><polygon points="337.38 199.32 337.38 181.78 340.42 181.78 340.42 194.06 384.05 168.86 385.57 171.49 337.38 199.32" style="fill:#F2F2F2"></polygon><polygon points="397.51 138.42 290.52 76.64 290.52 98.8 310.1 98.8 310.1 101.84 287.49 101.84 287.49 71.38 399.03 135.79 397.51 138.42" style="fill:#F2F2F2"></polygon><polygon points="359.52 126.43 357.96 129.04 353.98 126.64 332.5 113.73 302.37 113.73 302.37 126.59 225.99 126.59 225.99 123.55 299.33 123.55 299.33 110.7 333.34 110.7 355.53 124.04 359.52 126.43" style="fill:#F2F2F2"></polygon><polygon points="295.77 178.49 223.18 178.49 223.18 175.46 294.56 175.46 324.21 147.33 420.18 148.24 420.15 151.27 325.41 150.38 295.77 178.49" style="fill:#F2F2F2"></polygon><path d="M363.64,127.74a4.9,4.9,0,1,1-4.9-4.9A4.9,4.9,0,0,1,363.64,127.74Z" style="fill:#F2F2F2"></path><circle cx="333.86" cy="126.6" r="4.9" style="fill:#F2F2F2"></circle><path d="M385.85,138.48a4.9,4.9,0,1,1-4.9-4.89A4.9,4.9,0,0,1,385.85,138.48Z" style="fill:#F2F2F2"></path><path d="M406.65,139.32a4.9,4.9,0,1,1-4.9-4.89A4.9,4.9,0,0,1,406.65,139.32Z" style="fill:#F2F2F2"></path><path d="M333.86,202.42a4.9,4.9,0,1,1-4.89-4.89A4.89,4.89,0,0,1,333.86,202.42Z" style="fill:#F2F2F2"></path><path d="M307.14,202.86a4.9,4.9,0,1,1-4.89-4.9A4.89,4.89,0,0,1,307.14,202.86Z" style="fill:#F2F2F2"></path><path d="M406.65,159.25a4.9,4.9,0,1,1-4.9-4.89A4.9,4.9,0,0,1,406.65,159.25Z" style="fill:#F2F2F2"></path><path d="M343.8,181.87a4.9,4.9,0,1,1-4.9-4.89A4.9,4.9,0,0,1,343.8,181.87Z" style="fill:#F2F2F2"></path><path d="M390.75,169.4a4.9,4.9,0,1,1-4.9-4.9A4.9,4.9,0,0,1,390.75,169.4Z" style="fill:#F2F2F2"></path><path d="M425.07,149.75a4.9,4.9,0,1,1-4.9-4.89A4.9,4.9,0,0,1,425.07,149.75Z" style="fill:#F2F2F2"></path><path d="M293.9,113.3a4.9,4.9,0,1,1-4.89-4.9A4.89,4.89,0,0,1,293.9,113.3Z" style="fill:#F2F2F2"></path><circle cx="285.22" cy="145.05" r="4.9" style="fill:#F2F2F2"></circle><path d="M315,100.66a4.9,4.9,0,1,1-4.89-4.9A4.89,4.89,0,0,1,315,100.66Z" style="fill:#F2F2F2"></path><polygon points="309.16 137.06 225.99 137.06 225.99 134.02 307.91 134.02 316.5 125.43 332.68 125.43 332.68 128.47 317.75 128.47 309.16 137.06" style="fill:#F2F2F2"></polygon><polygon points="376.91 136.97 376.91 140.01 317.94 140.01 291.22 166.71 224.42 166.71 224.42 163.67 289.97 163.67 316.67 136.97 376.91 136.97" style="fill:#F2F2F2"></polygon><rect x="64.93" y="129.66" width="68.63" height="7.4" style="fill:#F2F2F2"></rect><rect x="102.61" y="180.33" width="30.95" height="7.4" style="fill:#F2F2F2"></rect><rect x="113.7" y="111.77" width="19.87" height="7.4" style="fill:#F2F2F2"></rect><rect x="100" y="111.77" width="7.4" height="7.4" style="fill:#F2F2F2"></rect><rect x="88.74" y="180.33" width="7.4" height="7.4" style="fill:#F2F2F2"></rect><rect x="122.71" y="161.14" width="39.23" height="8.72" style="fill:#F2F2F2"></rect><rect x="106.26" y="143.34" width="27.3" height="8.71" style="fill:#F2F2F2"></rect><rect x="91.07" y="143.34" width="8.71" height="8.71" style="fill:#F2F2F2"></rect><rect x="226.3" y="143.34" width="56.66" height="3.04" style="fill:#F2F2F2"></rect><path d="M235,154.65a4.9,4.9,0,1,1,4.9,4.9A4.9,4.9,0,0,1,235,154.65Z" style="fill:#F2F2F2"></path><rect x="244" y="153.33" width="56.66" height="3.04" style="fill:#F2F2F2"></rect><polygon points="304.69 187.71 294.56 177.58 296.71 175.44 304.69 183.41 330.36 157.73 401.75 157.73 401.75 160.77 331.62 160.77 304.69 187.71" style="fill:#F2F2F2"></polygon><polygon points="303.32 203.94 301.17 201.79 336.22 166.74 359.15 166.74 370.43 178.03 368.28 180.17 357.89 169.78 337.48 169.78 303.32 203.94" style="fill:#F2F2F2"></polygon></g></svg>
